# xmcd
# 
# Track frame offsets:
#     150
#     17232
#     34867
#     52775
#     73210
#     87187
#     104485
#     122992
#     139805
#     155715
#     171077
#     180357
#     198017
#     218582
# 
# Disc length: 3086
# 
# Revision: 8
# Processed by: cddbd v1.5.2PL0 Copyright (c) Steve Scherf et al.
# Submitted via: fre:ac v1.0.17
# 
DISCID=bf0c0c0e
DTITLE=Various Artist - Rock and Pop Moods Vol. 6 - Cruisin'
DYEAR=1999
DGENRE=Pop/Rock
TTITLE0=Glenn Frey - The Heat Is On
TTITLE1=Big Country - In A Big Country
TTITLE2=Level 42 - Lessons In Love
TTITLE3=Chris Rea - The Road to Hell (Part 2)
TTITLE4=The Pretenders - Brass In Pocket
TTITLE5=Blue Öyster Cult - (Don't Fear) The Reaper
TTITLE6=Prefab Sprout - Life Of Surprises
TTITLE7=Joe Jackson - Steppin' Out
TTITLE8=Blondie - Call Me
TTITLE9=Stealer's Wheel - Stuck in the Middle with You
TTITLE10=The Beach Boys - Fun, Fun, Fun
TTITLE11=Whitesnake - Here I Go Again
TTITLE12=ZZ Top - Legs
TTITLE13=Little Feat - Willin'
EXTD=YEAR: 1999
EXTT0=
EXTT1=
EXTT2=
EXTT3=
EXTT4=
EXTT5=
EXTT6=
EXTT7=
EXTT8=
EXTT9=
EXTT10=
EXTT11=
EXTT12=
EXTT13=
PLAYORDER=
